<svg width="14" height="15" viewBox="0 0 14 15" fill="none" xmlns="http://www.w3.org/2000/svg">
<path d="M7 14.1666C3.318 14.1666 0.333328 11.1819 0.333328 7.49992C0.333328 3.81792 3.318 0.833252 7 0.833252C10.682 0.833252 13.6667 3.81792 13.6667 7.49992C13.6667 11.1819 10.682 14.1666 7 14.1666ZM7 12.8333C8.41448 12.8333 9.77104 12.2713 10.7712 11.2712C11.7714 10.271 12.3333 8.91441 12.3333 7.49992C12.3333 6.08543 11.7714 4.72888 10.7712 3.72868C9.77104 2.72849 8.41448 2.16659 7 2.16659C5.58551 2.16659 4.22895 2.72849 3.22876 3.72868C2.22856 4.72888 1.66666 6.08543 1.66666 7.49992C1.66666 8.91441 2.22856 10.271 3.22876 11.2712C4.22895 12.2713 5.58551 12.8333 7 12.8333ZM6.33333 9.49992H7.66666V10.8333H6.33333V9.49992ZM6.33333 4.16659H7.66666V8.16659H6.33333V4.16659Z" fill="#C30052"/>
</svg>
